<svg id="Layer_1" enable-background="new 0 0 256 256" height="512" viewBox="0 0 256 256" width="512" xmlns="http://www.w3.org/2000/svg"><g><path d="m128 135.911-96.617 51.099c-1.768.935-2.496 3.114-1.599 4.902 5.187 10.342 26.714 41.397 98.216 41.397s93.029-31.055 98.216-41.397c.897-1.788.169-3.967-1.599-4.902z" fill="#72c777"/><g><path d="m42.416 191.912c-.897-1.788-.169-3.967 1.599-4.902l90.301-47.759-6.316-3.34-96.617 51.099c-1.768.935-2.496 3.114-1.599 4.902 5.187 10.342 26.714 41.397 98.216 41.397 2.151 0 4.254-.03 6.316-.084-66.464-1.768-86.869-31.282-91.9-41.313z" fill="#52aa57"/></g><path d="m206.704 193.459-76.666-40.547c-1.275-.674-2.801-.674-4.076 0l-77.01 40.73c-2.128 1.126-2.94 3.764-1.816 5.891.782 1.478 2.293 2.322 3.858 2.322.686 0 1.383-.163 2.034-.507l16.09-8.51c2.243 3.671 6.54 9.016 14.327 13.729 11.238 6.799 26.228 10.247 44.555 10.247s33.317-3.447 44.555-10.247c7.788-4.713 12.085-10.058 14.327-13.729l15.745 8.328c.65.343 1.347.507 2.034.507 1.564 0 3.076-.844 3.858-2.322 1.125-2.129.313-4.766-1.815-5.892zm-78.704 14.637c-34.53 0-47.102-13.025-51.159-19.342l16.349-8.647c.001-.001.002-.001.003-.002l34.807-18.409 51.159 27.058c-4.057 6.316-16.629 19.342-51.159 19.342z" fill="#cecece"/><path d="m118 11.718h20.001v145.039h-20.001z" fill="#cecece" transform="matrix(-1 0 0 -1 256 168.476)"/><g><path d="m118 11.718h12.632v145.039h-12.632z" fill="#afafaf"/></g><path d="m138 75.473s-26.642-11.218-44.591 2.991-35.523 0-35.523 0v-49.021s17.575 14.209 35.523 0 44.591-2.992 44.591-2.992z" fill="#f46275"/><g><path d="m70.517 35.147c-7.52-1.581-12.632-5.705-12.632-5.705v49.021s11.035 8.907 24.545 5.545c-7.125-1.682-11.914-5.545-11.914-5.545v-43.316z" fill="#f43075"/></g><g fill="#3f3679"><path d="m27.323 242.782h-18.003c-.828 0-1.5.671-1.5 1.5s.672 1.5 1.5 1.5h18.003c.828 0 1.5-.671 1.5-1.5s-.672-1.5-1.5-1.5z"/><path d="m246.68 242.782h-18.003c-.828 0-1.5.671-1.5 1.5s.672 1.5 1.5 1.5h18.003c.828 0 1.5-.671 1.5-1.5s-.672-1.5-1.5-1.5z"/><path d="m218.479 242.782h-180.958c-.828 0-1.5.671-1.5 1.5s.672 1.5 1.5 1.5h180.959c.828 0 1.5-.671 1.5-1.5s-.672-1.5-1.501-1.5z"/><path d="m9.32 234.809h237.36c.828 0 1.5-.671 1.5-1.5s-.672-1.5-1.5-1.5h-83.038c15.134-2.772 28.228-7.452 39.112-14.037 15.204-9.199 22.066-19.729 24.804-25.187 1.249-2.491.245-5.587-2.238-6.901l-85.82-45.388v-64.823-5.75-18.957c0-.002 0-.003 0-.005v-19.499-4.811-14.733c0-.829-.672-1.5-1.5-1.5h-20c-.828 0-1.5.671-1.5 1.5v9.04c-9.47-.053-17.692 2.496-24.022 7.508-16.769 13.274-32.969.556-33.648.01-.451-.364-1.068-.436-1.59-.187-.521.249-.854.775-.854 1.354v49.021c0 .453.205.882.557 1.167.123.1 8.364 6.612 19.366 6.611 5.539 0 11.778-1.651 18.03-6.601 6.726-5.324 14.815-6.887 22.161-6.831v67.487l-85.818 45.388c-2.483 1.313-3.487 4.409-2.238 6.9 2.737 5.458 9.6 15.988 24.804 25.187 10.884 6.585 23.978 11.265 39.112 14.037h-83.04c-.828 0-1.5.671-1.5 1.5s.672 1.5 1.5 1.5zm109.743-76.552h17.989c.092.084.192.162.307.223l68.643 36.304c1.394.737 1.928 2.471 1.191 3.864-.715 1.351-2.49 1.915-3.864 1.191l-15.746-8.328c-.697-.368-1.568-.132-1.981.544-2.149 3.519-6.292 8.67-13.822 13.228-11.001 6.655-25.729 10.03-43.779 10.03s-32.778-3.375-43.779-10.03c-7.528-4.556-11.673-9.708-13.823-13.228-.414-.675-1.282-.912-1.981-.544l-16.089 8.509c-1.377.726-3.151.159-3.865-1.189-.736-1.394-.202-3.128 1.19-3.865zm.437-145.039h17v11.071c-2.687-.932-7.745-2.451-13.893-3.161-1.05-.121-2.083-.203-3.107-.266zm-25.161 17.401c15.206-12.039 37.398-4.885 42.161-3.137v3.78 17.342c-2.687-.932-7.745-2.451-13.893-3.161-12.056-1.395-22.473 1.076-30.13 7.138-15.252 12.074-30.03 2.647-33.092.43v-20.757c5.653 3.411 20.263 9.996 34.954-1.635zm-1.861 46.669c-15.248 12.071-30.025 2.65-33.092.431v-21.152c3.243 1.958 9.441 4.967 16.923 4.967 5.539 0 11.778-1.651 18.03-6.601 15.224-12.051 37.432-4.874 42.161-3.136v17.926 3.588c-2.688-.932-7.748-2.451-13.893-3.16-12.055-1.396-22.472 1.075-30.129 7.137zm44.022-.784v78.754h-17v-82.339c7.987.523 14.649 2.721 17 3.585zm-81.699 138.701c-14.561-8.81-21.083-18.796-23.676-23.965-.523-1.044-.094-2.347.959-2.904l84.416-44.646v12.529l-68.25 36.097c-2.854 1.51-3.949 5.062-2.44 7.919 1.019 1.925 3.006 3.12 5.185 3.12.945 0 1.891-.235 2.734-.68l14.87-7.865c2.489 3.718 6.826 8.658 14.069 13.041 11.476 6.943 26.728 10.463 45.332 10.463s33.856-3.521 45.332-10.463c7.244-4.383 11.58-9.324 14.068-13.041l14.527 7.683c.844.445 1.788.68 2.733.68 2.179 0 4.165-1.196 5.185-3.122 1.509-2.856.414-6.408-2.441-7.918l-67.904-35.914v-12.529l84.416 44.646c1.053.557 1.482 1.86.959 2.904-2.593 5.169-9.115 15.156-23.676 23.965-18.208 11.017-42.836 16.604-73.199 16.604s-54.991-5.587-73.199-16.604z"/><path d="m128 209.596c11.894 0 40.81-1.952 52.42-20.032.228-.353.296-.785.189-1.191s-.379-.749-.75-.945l-51.158-27.058c-.439-.231-.965-.231-1.402 0l-34.795 18.403c-.005.003-.01.005-.015.008l-16.349 8.647c-.371.196-.644.539-.75.945s-.038.838.188 1.191c11.61 18.08 40.528 20.032 52.422 20.032zm-34.12-28.157c.005-.003.011-.006.016-.008l34.104-18.038 48.97 25.9c-11.39 15.583-37.882 17.303-48.97 17.303-11.089 0-37.581-1.72-48.971-17.303z"/></g></g></svg>