<svg width="100" height="100" viewBox="0 0 100 100" fill="none" xmlns="http://www.w3.org/2000/svg">
<path d="M50 0C22.43 0 0 22.43 0 50C0 62.075 4.30333 73.1633 11.4567 81.8133C11.475 81.8383 11.4767 81.87 11.4967 81.8933C16.6617 88.1217 23.1483 92.8967 30.3767 95.9817C30.46 96.0167 30.5417 96.055 30.625 96.09C31.21 96.3367 31.8017 96.565 32.395 96.7883C32.6283 96.8767 32.8617 96.9667 33.0983 97.0517C33.61 97.235 34.125 97.4083 34.6433 97.575C34.975 97.6817 35.3067 97.7867 35.6417 97.8867C36.1 98.0233 36.56 98.155 37.0233 98.28C37.43 98.39 37.84 98.4917 38.25 98.59C38.665 98.69 39.0817 98.79 39.5 98.8783C39.9667 98.9783 40.4383 99.0667 40.9117 99.1533C41.2917 99.2233 41.67 99.2967 42.0533 99.3583C42.5783 99.4433 43.1067 99.51 43.6367 99.5783C43.9783 99.6217 44.3183 99.6717 44.6617 99.7083C45.2617 99.7717 45.8667 99.8167 46.4733 99.8583C46.755 99.8783 47.035 99.9083 47.3183 99.9233C48.2033 99.9733 49.0983 100 50 100C50.9017 100 51.7967 99.9733 52.685 99.9267C52.9683 99.9117 53.2483 99.8817 53.53 99.8617C54.1367 99.8183 54.7417 99.775 55.3417 99.7117C55.685 99.675 56.025 99.625 56.3667 99.5817C56.8967 99.5133 57.425 99.4467 57.95 99.3617C58.3317 99.3 58.7117 99.2267 59.0917 99.1567C59.5633 99.07 60.035 98.9817 60.5033 98.8817C60.9217 98.7917 61.3367 98.6933 61.7533 98.5933C62.1633 98.4933 62.5733 98.3917 62.98 98.2833C63.4433 98.16 63.9033 98.0267 64.3617 97.89C64.6967 97.79 65.0283 97.685 65.36 97.5783C65.8783 97.4117 66.3933 97.2383 66.905 97.055C67.14 96.97 67.3733 96.88 67.6083 96.7917C68.2033 96.5683 68.7933 96.3383 69.3783 96.0933C69.4617 96.0583 69.5433 96.02 69.6267 95.985C76.8533 92.9 83.3417 88.125 88.5067 81.8967C88.5267 81.8733 88.5283 81.84 88.5467 81.8167C95.6967 73.1633 100 62.075 100 50C100 22.43 77.57 0 50 0ZM70.2617 92.0333C70.2367 92.045 70.2133 92.0583 70.1883 92.07C69.5933 92.3567 68.9883 92.6267 68.3783 92.89C68.24 92.9483 68.1033 93.0083 67.965 93.0667C67.4317 93.29 66.8917 93.5017 66.3483 93.705C66.1217 93.79 65.895 93.8733 65.6667 93.9533C65.185 94.125 64.7017 94.29 64.2133 94.4467C63.91 94.5433 63.605 94.635 63.3 94.725C62.8667 94.855 62.4317 94.98 61.9917 95.0967C61.6217 95.195 61.2483 95.285 60.875 95.3733C60.4833 95.4667 60.0933 95.5617 59.6983 95.645C59.2667 95.7367 58.8317 95.815 58.3983 95.8933C58.0467 95.9583 57.6967 96.0267 57.3417 96.0833C56.8533 96.16 56.36 96.2217 55.8683 96.2833C55.5567 96.3233 55.2467 96.37 54.9317 96.4033C54.37 96.4633 53.8033 96.5017 53.2383 96.5417C52.9867 96.5583 52.7367 96.5867 52.4817 96.6C51.6567 96.6433 50.83 96.6667 50 96.6667C49.17 96.6667 48.3433 96.6433 47.52 96.6C47.2667 96.5867 47.0167 96.56 46.7633 96.5417C46.1967 96.5033 45.6317 96.4633 45.07 96.4033C44.755 96.37 44.445 96.3233 44.1333 96.2833C43.6417 96.2217 43.1483 96.16 42.66 96.0833C42.305 96.0267 41.955 95.9583 41.6033 95.8933C41.1683 95.815 40.7333 95.735 40.3033 95.645C39.9083 95.5617 39.5167 95.4667 39.1267 95.3733C38.7533 95.2833 38.38 95.195 38.01 95.0967C37.5717 94.98 37.135 94.8533 36.7017 94.725C36.3967 94.635 36.0917 94.5433 35.7883 94.4467C35.3 94.29 34.815 94.125 34.335 93.9533C34.1067 93.8717 33.88 93.7883 33.6533 93.705C33.11 93.5017 32.57 93.29 32.0367 93.0667C31.8983 93.01 31.7633 92.95 31.625 92.8917C31.015 92.63 30.41 92.3583 29.8133 92.0717C29.7883 92.06 29.765 92.0483 29.74 92.035C23.925 89.2217 18.7883 85.2283 14.62 80.3783C17.8417 68.515 26.9617 58.9517 38.695 55.1467C38.9267 55.2883 39.1683 55.415 39.4067 55.5483C39.5467 55.6267 39.685 55.71 39.8267 55.785C40.3233 56.0483 40.8267 56.295 41.3417 56.5167C41.7367 56.69 42.145 56.8367 42.5517 56.9867C42.6317 57.015 42.7117 57.0467 42.7917 57.075C45.0517 57.875 47.47 58.3333 50 58.3333C52.53 58.3333 54.9483 57.875 57.2067 57.075C57.2867 57.0467 57.3667 57.015 57.4467 56.9867C57.8533 56.8367 58.2617 56.69 58.6567 56.5167C59.1717 56.295 59.675 56.0483 60.1717 55.785C60.3133 55.7083 60.4517 55.6267 60.5917 55.5483C60.83 55.415 61.0733 55.2883 61.3067 55.145C73.04 58.9517 82.1583 68.515 85.3817 80.3767C81.2133 85.225 76.0767 89.2183 70.2617 92.0333ZM31.6667 36.6667C31.6667 26.5583 39.8917 18.3333 50 18.3333C60.1083 18.3333 68.3333 26.5583 68.3333 36.6667C68.3333 43.0967 64.9983 48.755 59.9733 52.0283C59.3167 52.455 58.6333 52.8367 57.9317 53.17C57.8483 53.21 57.7667 53.2517 57.6833 53.29C52.8567 55.485 47.1433 55.485 42.3167 53.29C42.2333 53.2517 42.15 53.21 42.0683 53.17C41.365 52.8367 40.6833 52.455 40.0267 52.0283C35.0017 48.755 31.6667 43.0967 31.6667 36.6667ZM87.8817 77.205C84.1033 66.0483 75.4833 57.0317 64.47 52.7483C68.875 48.78 71.6667 43.05 71.6667 36.6667C71.6667 24.72 61.9467 15 50 15C38.0533 15 28.3333 24.72 28.3333 36.6667C28.3333 43.05 31.125 48.78 35.5317 52.7483C24.5183 57.0333 15.8983 66.0483 12.12 77.205C6.59833 69.54 3.33333 60.1467 3.33333 50C3.33333 24.2683 24.2683 3.33333 50 3.33333C75.7317 3.33333 96.6667 24.2683 96.6667 50C96.6667 60.1467 93.4017 69.54 87.8817 77.205Z" fill="white"/>
</svg>
